<?xml version="1.0" encoding="UTF-8" standalone="no"?>
<!DOCTYPE svg PUBLIC "-//W3C//DTD SVG 1.1//EN" "http://www.w3.org/Graphics/SVG/1.1/DTD/svg11.dtd">
<svg version="1.1" xmlns="http://www.w3.org/2000/svg" xmlns:xlink="http://www.w3.org/1999/xlink" preserveAspectRatio="xMidYMid meet" viewBox="0 0 1200 800" width="1200" height="800"><defs><path d="M514.48 451.67C514.48 617.84 486.54 752.76 452.13 752.76C417.71 752.76 389.77 617.84 389.77 451.67C389.77 285.49 417.71 150.57 452.13 150.57C486.54 150.57 514.48 285.49 514.48 451.67Z" id="aaqb2LxHG7"></path><path d="M415.15 179.6C420.16 180.89 423.18 186 421.89 191.02C418.52 204.13 410.75 234.38 407.38 247.49C406.09 252.5 400.98 255.52 395.97 254.23C385.88 251.64 364.69 246.19 354.6 243.6C349.58 242.31 346.56 237.2 347.85 232.19C351.22 219.08 358.99 188.83 362.36 175.72C363.65 170.7 368.76 167.68 373.77 168.97C383.86 171.56 405.06 177.01 415.15 179.6Z" id="a4xJG90thU"></path><path d="M399.42 658.2C404.4 656.79 409.58 659.7 410.98 664.68C414.65 677.71 423.12 707.77 426.78 720.8C428.19 725.79 425.28 730.96 420.3 732.37C410.27 735.19 389.21 741.12 379.18 743.94C374.2 745.35 369.02 742.44 367.62 737.46C363.95 724.43 355.49 694.37 351.82 681.34C350.42 676.35 353.32 671.17 358.3 669.77C368.33 666.95 389.39 661.02 399.42 658.2Z" id="brFwNbVFh"></path><path d="M531.63 169.06C536.65 167.81 541.74 170.87 542.99 175.9C546.26 189.03 553.79 219.34 557.06 232.48C558.31 237.5 555.25 242.59 550.22 243.84C540.11 246.35 518.88 251.63 508.77 254.15C503.75 255.39 498.66 252.33 497.41 247.31C494.14 234.17 486.61 203.86 483.34 190.73C482.09 185.7 485.15 180.62 490.18 179.37C500.29 176.85 521.52 171.57 531.63 169.06Z" id="ca4eTQ3GT"></path><path d="M550.65 659.8C555.67 661.09 558.69 666.2 557.4 671.22C554.03 684.33 546.26 714.58 542.89 727.69C541.6 732.7 536.49 735.72 531.48 734.43C521.39 731.84 500.2 726.4 490.1 723.8C485.09 722.51 482.07 717.4 483.36 712.39C486.73 699.28 494.5 669.03 497.87 655.92C499.16 650.9 504.27 647.88 509.28 649.17C519.37 651.77 540.56 657.21 550.65 659.8Z" id="bfckxmMee"></path><path d="M430.75 456.12C430.75 615.17 395.22 744.3 351.47 744.3C307.71 744.3 272.18 615.17 272.18 456.12C272.18 297.07 307.71 167.95 351.47 167.95C395.22 167.95 430.75 297.07 430.75 456.12Z" id="c1KUvs33LE"></path><path d="M627.61 456.12C627.61 615.17 593.69 744.3 551.9 744.3C510.11 744.3 476.18 615.17 476.18 456.12C476.18 297.07 510.11 167.95 551.9 167.95C593.69 167.95 627.61 297.07 627.61 456.12Z" id="dqmOkY2oj"></path><path d="M452.13 468.62C452.13 583.17 449.13 676.18 445.45 676.18C441.76 676.18 438.76 583.17 438.76 468.62C438.76 354.07 441.76 261.06 445.45 261.06C449.13 261.06 452.13 354.07 452.13 468.62Z" id="b6C24wrQLu"></path><path d="M468.18 468.62C468.18 583.17 465.19 676.18 461.5 676.18C457.81 676.18 454.82 583.17 454.82 468.62C454.82 354.07 457.81 261.06 461.5 261.06C465.19 261.06 468.18 354.07 468.18 468.62Z" id="bOYp4iRCt"></path><path d="M442.28 197.34C442.28 207.91 438.89 216.49 434.71 216.49C430.53 216.49 427.14 207.91 427.14 197.34C427.14 186.77 430.53 178.19 434.71 178.19C438.89 178.19 442.28 186.77 442.28 197.34Z" id="a14eINEHoW"></path><path d="M475.75 197.34C475.75 207.91 472.36 216.49 468.18 216.49C464 216.49 460.61 207.91 460.61 197.34C460.61 186.77 464 178.19 468.18 178.19C472.36 178.19 475.75 186.77 475.75 197.34Z" id="b1Telr6XV1"></path><path d="M440.05 197.34C440.05 200.29 437.66 202.69 434.71 202.69C431.76 202.69 429.36 200.29 429.36 197.34C429.36 194.39 431.76 192 434.71 192C437.66 192 440.05 194.39 440.05 197.34Z" id="b12awm0sQg"></path><path d="M473.53 197.34C473.53 200.29 471.13 202.69 468.18 202.69C465.23 202.69 462.84 200.29 462.84 197.34C462.84 194.39 465.23 192 468.18 192C471.13 192 473.53 194.39 473.53 197.34Z" id="h2pdgJ37ci"></path><path d="M430.75 751.87C430.75 777.43 427.35 798.19 423.18 798.19C419 798.19 415.6 777.43 415.6 751.87C415.6 726.3 419 705.55 423.18 705.55C427.35 705.55 430.75 726.3 430.75 751.87Z" id="b510nssWVT"></path><path d="M493.57 751.87C493.57 777.43 490.18 798.19 486 798.19C481.82 798.19 478.43 777.43 478.43 751.87C478.43 726.3 481.82 705.55 486 705.55C490.18 705.55 493.57 726.3 493.57 751.87Z" id="a229MYwWOx"></path><path d="M336.47 375.25C327.78 382.85 286.39 349.78 244.11 301.43C201.82 253.09 174.55 207.67 183.24 200.07C191.93 192.47 233.31 225.55 275.6 273.89C317.88 322.23 345.16 367.65 336.47 375.25Z" id="b3E1L8yKq4"></path><path d="M572.93 375.94C564.21 368.38 591.26 322.83 633.31 274.29C675.37 225.74 716.59 192.47 725.32 200.03C734.04 207.58 706.99 253.13 664.94 301.68C622.89 350.23 581.66 383.5 572.93 375.94Z" id="a1fu0C82gU"></path><path d="M468.18 232.53L438.76 232.53L452.13 252.13L468.18 232.53Z" id="b5eRj1QzG"></path><path d="M207.16 196.01C207.16 207.31 196.78 216.49 183.99 216.49C171.21 216.49 160.83 207.31 160.83 196.01C160.83 184.7 171.21 175.52 183.99 175.52C196.78 175.52 207.16 184.7 207.16 196.01Z" id="aQgDIVFgI"></path><path d="M758.14 196.01C758.14 207.31 747.76 216.49 734.98 216.49C722.2 216.49 711.82 207.31 711.82 196.01C711.82 184.7 722.2 175.52 734.98 175.52C747.76 175.52 758.14 184.7 758.14 196.01Z" id="ckj3wmhq0"></path><path d="M431.19 790.2C431.19 795.61 420.81 800 408.03 800C395.25 800 384.87 795.61 384.87 790.2C384.87 784.79 395.25 780.4 408.03 780.4C420.81 780.4 431.19 784.79 431.19 790.2Z" id="ae5DW7mPB"></path><path d="M519.85 792.87C519.85 798.28 509.47 802.67 496.69 802.67C483.91 802.67 473.53 798.28 473.53 792.87C473.53 787.47 483.91 783.07 496.69 783.07C509.47 783.07 519.85 787.47 519.85 792.87Z" id="bayy4W16p"></path><path d="M347.55 284.06C347.55 288.56 346.16 292.21 344.43 292.21C342.71 292.21 341.32 288.56 341.32 284.06C341.32 279.56 342.71 275.91 344.43 269.05C346.16 275.91 347.55 279.56 347.55 284.06Z" id="bZO4CKMT"></path><path d="M309.09 389.21C309.09 393.71 307.7 397.36 305.98 397.36C304.26 397.36 302.86 393.71 302.86 389.21C302.86 384.71 304.26 381.06 305.98 374.2C307.7 381.06 309.09 384.71 309.09 389.21Z" id="bb8Ipg28"></path><path d="M384.87 331.33C384.87 335.83 383.47 339.48 381.75 339.48C380.03 339.48 378.64 335.83 378.64 331.33C378.64 326.83 380.03 323.18 381.75 316.32C383.47 323.18 384.87 326.83 384.87 331.33Z" id="bg02K1rQS"></path><path d="M341.32 400.79C341.32 405.29 339.92 408.94 338.2 408.94C336.48 408.94 335.08 405.29 335.08 400.79C335.08 396.29 336.48 392.64 338.2 385.78C339.92 392.64 341.32 396.29 341.32 400.79Z" id="c1gujC5S4k"></path><path d="M309.09 462.34C309.09 466.84 307.7 470.49 305.98 470.49C304.26 470.49 302.86 466.84 302.86 462.34C302.86 457.84 304.26 454.19 305.98 447.33C307.7 454.19 309.09 457.84 309.09 462.34Z" id="a3mPAxudXP"></path><path d="M381.75 475.73C381.75 480.23 380.36 483.88 378.64 483.88C376.91 483.88 375.52 480.23 375.52 475.73C375.52 471.23 376.91 467.58 378.64 460.72C380.36 467.58 381.75 471.23 381.75 475.73Z" id="b5H3bMKxOw"></path><path d="M335.08 552.48C335.08 556.98 333.68 560.63 331.96 560.63C330.24 560.63 328.84 556.98 328.84 552.48C328.84 547.98 330.24 544.33 331.96 537.47C333.68 544.33 335.08 547.98 335.08 552.48Z" id="a3nW7ubPUc"></path><path d="M378.64 604.95C378.64 609.45 377.24 613.1 375.52 613.1C373.8 613.1 372.4 609.45 372.4 604.95C372.4 600.45 373.8 596.81 375.52 589.94C377.24 596.81 378.64 600.45 378.64 604.95Z" id="alN0ilFgr"></path><path d="M335.08 651.56C335.08 656.06 333.68 659.71 331.96 659.71C330.24 659.71 328.84 656.06 328.84 651.56C328.84 647.06 330.24 643.41 331.96 636.55C333.68 643.41 335.08 647.06 335.08 651.56Z" id="b2MfU3bEF8"></path><path d="M375.52 394.78C375.52 399.28 374.12 402.93 372.4 402.93C370.68 402.93 369.28 399.28 369.28 394.78C369.28 390.28 370.68 386.63 372.4 379.77C374.12 386.63 375.52 390.28 375.52 394.78Z" id="fEXIdMqEU"></path><path d="M401.77 409.06C401.77 413.56 400.38 417.21 398.65 417.21C396.93 417.21 395.54 413.56 395.54 409.06C395.54 404.56 396.93 400.91 398.65 394.05C400.38 400.91 401.77 404.56 401.77 409.06Z" id="c4nXx7dCu"></path><path d="M338.08 455.1C338.08 459.6 336.69 463.25 334.96 463.25C333.24 463.25 331.85 459.6 331.85 455.1C331.85 450.6 333.24 446.95 334.96 440.09C336.69 446.95 338.08 450.6 338.08 455.1Z" id="brrLGlul"></path><path d="M363.94 505.33C363.94 509.83 362.54 513.48 360.82 513.48C359.1 513.48 357.7 509.83 357.7 505.33C357.7 500.83 359.1 497.18 360.82 490.32C362.54 497.18 363.94 500.83 363.94 505.33Z" id="aZNtT4QAq"></path><path d="M309.09 511.59C309.09 516.09 307.7 519.74 305.98 519.74C304.26 519.74 302.86 516.09 302.86 511.59C302.86 507.09 304.26 503.44 305.98 496.58C307.7 503.44 309.09 507.09 309.09 511.59Z" id="eKyItYPui"></path><path d="M395.54 542.8C395.54 547.3 394.14 550.95 392.42 550.95C390.7 550.95 389.3 547.3 389.3 542.8C389.3 538.3 390.7 534.65 392.42 527.79C394.14 534.65 395.54 538.3 395.54 542.8Z" id="b1aoMLBoMk"></path><path d="M344.43 601.56C344.43 606.06 343.04 609.71 341.32 609.71C339.59 609.71 338.2 606.06 338.2 601.56C338.2 597.06 339.59 593.41 341.32 586.55C343.04 593.41 344.43 597.06 344.43 601.56Z" id="b22xKsXqCt"></path><path d="M319.74 608.78C319.74 613.28 318.35 616.93 316.62 616.93C314.9 616.93 313.51 613.28 313.51 608.78C313.51 604.28 314.9 600.63 316.62 593.76C318.35 600.63 319.74 604.28 319.74 608.78Z" id="cgt9IhR37"></path><path d="M381.75 651.56C381.75 656.06 380.36 659.71 378.64 659.71C376.91 659.71 375.52 656.06 375.52 651.56C375.52 647.06 376.91 643.41 378.64 636.55C380.36 643.41 381.75 647.06 381.75 651.56Z" id="b2UmosNajj"></path><path d="M357.7 700.59C357.7 705.09 356.31 708.74 354.58 708.74C352.86 708.74 351.47 705.09 351.47 700.59C351.47 696.09 352.86 692.44 354.58 685.57C356.31 692.44 357.7 696.09 357.7 700.59Z" id="ac0TsE31"></path><path d="M369.28 542.8C369.28 547.3 367.89 550.95 366.16 550.95C364.44 550.95 363.05 547.3 363.05 542.8C363.05 538.3 364.44 534.65 366.16 527.79C367.89 534.65 369.28 538.3 369.28 542.8Z" id="anpbnLMxs"></path><path d="M372.4 238.32C372.4 242.82 371 246.47 369.28 246.47C367.56 246.47 366.16 242.82 366.16 238.32C366.16 233.82 367.56 230.17 369.28 223.3C371 230.17 372.4 233.82 372.4 238.32Z" id="ec2htkCXH"></path><path d="M337.24 215.03C337.24 219.53 335.85 223.18 334.12 223.18C332.4 223.18 331.01 219.53 331.01 215.03C331.01 210.53 332.4 206.88 334.12 200.02C335.85 206.88 337.24 210.53 337.24 215.03Z" id="j1DUB4Ut9M"></path><path d="M363.94 319.75C363.94 324.25 362.54 327.9 360.82 327.9C359.1 327.9 357.7 324.25 357.7 319.75C357.7 315.25 359.1 311.6 360.82 304.74C362.54 311.6 363.94 315.25 363.94 319.75Z" id="cKcHPGaaM"></path><path d="M328.84 502.08C328.84 506.58 327.45 510.23 325.73 510.23C324.01 510.23 322.61 506.58 322.61 502.08C322.61 497.58 324.01 493.93 325.73 487.07C327.45 493.93 328.84 497.58 328.84 502.08Z" id="a23xerjYnx"></path><path d="M411.15 487.31C411.15 491.81 409.75 495.46 408.03 495.46C406.31 495.46 404.91 491.81 404.91 487.31C404.91 482.81 406.31 479.16 408.03 472.3C409.75 479.16 411.15 482.81 411.15 487.31Z" id="a4WpjyEEO"></path><path d="M309.09 564.06C309.09 568.56 307.7 572.21 305.98 572.21C304.26 572.21 302.86 568.56 302.86 564.06C302.86 559.56 304.26 555.91 305.98 549.05C307.7 555.91 309.09 559.56 309.09 564.06Z" id="a7z6jpcQ9"></path><path d="M531.38 700.59C531.38 705.09 529.98 708.74 528.26 708.74C526.54 708.74 525.14 705.09 525.14 700.59C525.14 696.09 526.54 692.44 528.26 685.57C529.98 692.44 531.38 696.09 531.38 700.59Z" id="f3bsysq8J"></path><path d="M517.08 482.48C517.08 486.98 515.69 490.63 513.96 490.63C512.24 490.63 510.85 486.98 510.85 482.48C510.85 477.98 512.24 474.33 513.96 467.47C515.69 474.33 517.08 477.98 517.08 482.48Z" id="aN8vRsxyq"></path><path d="M606.24 394.78C606.24 399.28 604.84 402.93 603.12 402.93C601.4 402.93 600 399.28 600 394.78C600 390.28 601.4 386.63 603.12 379.77C604.84 386.63 606.24 390.28 606.24 394.78Z" id="a18gVFrzrJ"></path><path d="M568.18 243.98C568.18 248.48 566.78 252.13 565.06 252.13C563.34 252.13 561.94 248.48 561.94 243.98C561.94 239.48 563.34 235.83 565.06 228.97C566.78 235.83 568.18 239.48 568.18 243.98Z" id="cr0kHNEEU"></path><path d="M548.78 346.71C548.78 351.21 547.38 354.86 545.66 354.86C543.94 354.86 542.54 351.21 542.54 346.71C542.54 342.21 543.94 338.56 545.66 331.7C547.38 338.56 548.78 342.21 548.78 346.71Z" id="c3n0m3QHTP"></path><path d="M571.3 307.22C571.3 311.73 569.9 315.37 568.18 315.37C566.46 315.37 565.06 311.73 565.06 307.22C565.06 302.72 566.46 299.08 568.18 292.21C569.9 299.08 571.3 302.72 571.3 307.22Z" id="bJ6a3abCE"></path><path d="M534.5 238.19C534.5 242.7 533.1 246.34 531.38 246.34C529.66 246.34 528.26 242.7 528.26 238.19C528.26 233.69 529.66 230.05 531.38 223.18C533.1 230.05 534.5 233.69 534.5 238.19Z" id="bCrhJHlxQ"></path><path d="M341.2 321.82C341.2 326.32 339.8 329.97 338.08 329.97C336.36 329.97 334.96 326.32 334.96 321.82C334.96 317.32 336.36 313.67 338.08 306.81C339.8 313.67 341.2 317.32 341.2 321.82Z" id="a6x5x283ri"></path><path d="M313.51 249.9C313.51 254.4 312.11 258.05 310.39 258.05C308.67 258.05 307.27 254.4 307.27 249.9C307.27 245.4 308.67 241.75 310.39 234.89C312.11 241.75 313.51 245.4 313.51 249.9Z" id="b3g3I8gCEa"></path><path d="M395.54 355.64C395.54 360.14 394.14 363.79 392.42 363.79C390.7 363.79 389.3 360.14 389.3 355.64C389.3 351.14 390.7 347.49 392.42 340.63C394.14 347.49 395.54 351.14 395.54 355.64Z" id="a1yTumDCBt"></path><path d="M401.77 291.09C401.77 295.59 400.38 299.24 398.65 299.24C396.93 299.24 395.54 295.59 395.54 291.09C395.54 286.59 396.93 282.94 398.65 276.08C400.38 282.94 401.77 286.59 401.77 291.09Z" id="a2RKTkFW0T"></path><path d="M593.76 510.47C593.76 514.97 592.37 518.62 590.65 518.62C588.92 518.62 587.53 514.97 587.53 510.47C587.53 505.97 588.92 502.32 590.65 495.46C592.37 502.32 593.76 505.97 593.76 510.47Z" id="a1DzTKCIay"></path><path d="M580.33 644.15C580.33 648.65 578.93 652.3 577.21 652.3C575.49 652.3 574.09 648.65 574.09 644.15C574.09 639.65 575.49 636 577.21 629.14C578.93 636 580.33 639.65 580.33 644.15Z" id="f53XGm8qRS"></path><path d="M411.15 583.6C411.15 588.1 409.75 591.75 408.03 591.75C406.31 591.75 404.91 588.1 404.91 583.6C404.91 579.1 406.31 575.45 408.03 568.59C409.75 575.45 411.15 579.1 411.15 583.6Z" id="aPBBJEIg1"></path><path d="M537.61 661.27C537.61 665.77 536.22 669.42 534.5 669.42C532.78 669.42 531.38 665.77 531.38 661.27C531.38 656.77 532.78 653.12 534.5 646.26C536.22 653.12 537.61 656.77 537.61 661.27Z" id="bTELbWHv"></path><path d="M353.79 363.63C353.79 368.13 352.39 371.78 350.67 371.78C348.95 371.78 347.55 368.13 347.55 363.63C347.55 359.13 348.95 355.48 350.67 348.62C352.39 355.48 353.79 359.13 353.79 363.63Z" id="b29Vx2kiPm"></path><path d="M347.55 240.73C347.55 245.23 346.16 248.88 344.43 248.88C342.71 248.88 341.32 245.23 341.32 240.73C341.32 236.23 342.71 232.58 344.43 225.72C346.16 232.58 347.55 236.23 347.55 240.73Z" id="c1avDwCQ8"></path><path d="M316.62 287.08C316.62 291.58 315.23 295.23 313.51 295.23C311.78 295.23 310.39 291.58 310.39 287.08C310.39 282.58 311.78 278.93 313.51 272.07C315.23 278.93 316.62 282.58 316.62 287.08Z" id="b20tJGwuiY"></path><path d="M315.33 421.82C315.33 426.32 313.93 429.97 312.21 429.97C310.49 429.97 309.09 426.32 309.09 421.82C309.09 417.32 310.49 413.67 312.21 406.81C313.93 413.67 315.33 417.32 315.33 421.82Z" id="eDYFbmj5u"></path><path d="M378.64 433.4C378.64 437.9 377.24 441.55 375.52 441.55C373.8 441.55 372.4 437.9 372.4 433.4C372.4 428.9 373.8 425.25 375.52 418.39C377.24 425.25 378.64 428.9 378.64 433.4Z" id="f6N1l3oBtK"></path><path d="M372.4 267.93C372.4 272.43 371 276.08 369.28 276.08C367.56 276.08 366.16 272.43 366.16 267.93C366.16 263.43 367.56 259.78 369.28 252.92C371 259.78 372.4 263.43 372.4 267.93Z" id="b8KhwO2Ic"></path><path d="M414.27 441.3C414.27 445.81 412.87 449.45 411.15 449.45C409.43 449.45 408.03 445.81 408.03 441.3C408.03 436.8 409.43 433.16 411.15 426.29C412.87 433.16 414.27 436.8 414.27 441.3Z" id="ablb34Egg"></path><path d="M504.83 433.4C504.83 437.9 503.43 441.55 501.71 441.55C499.99 441.55 498.59 437.9 498.59 433.4C498.59 428.9 499.99 425.25 501.71 418.39C503.43 425.25 504.83 428.9 504.83 433.4Z" id="b1xPfiNnhr"></path><path d="M513.96 358.29C513.96 362.79 512.57 366.44 510.85 366.44C509.12 366.44 507.73 362.79 507.73 358.29C507.73 353.79 509.12 350.14 510.85 343.28C512.57 350.14 513.96 353.79 513.96 358.29Z" id="bdf9EPu6S"></path><path d="M526.44 302.67C526.44 307.17 525.04 310.82 523.32 310.82C521.6 310.82 520.2 307.17 520.2 302.67C520.2 298.17 521.6 294.52 523.32 287.66C525.04 294.52 526.44 298.17 526.44 302.67Z" id="buZR2pVvi"></path><path d="M600 439.18C600 443.68 598.6 447.33 596.88 447.33C595.16 447.33 593.76 443.68 593.76 439.18C593.76 434.68 595.16 431.03 596.88 424.17C598.6 431.03 600 434.68 600 439.18Z" id="a1hUYb55s2"></path><path d="M282.21 431.56C282.21 436.06 280.82 439.71 279.09 439.71C277.37 439.71 275.98 436.06 275.98 431.56C275.98 427.06 277.37 423.41 279.09 416.55C280.82 423.41 282.21 427.06 282.21 431.56Z" id="bn816fjR5"></path><path d="M288.92 482.48C288.92 486.98 287.52 490.63 285.8 490.63C284.08 490.63 282.68 486.98 282.68 482.48C282.68 477.98 284.08 474.33 285.8 467.47C287.52 474.33 288.92 477.98 288.92 482.48Z" id="b1hjRwRAA9"></path><path d="M546.47 464.47C546.47 468.97 545.07 472.61 543.35 472.61C541.63 472.61 540.23 468.97 540.23 464.47C540.23 459.97 541.63 456.32 543.35 449.45C545.07 456.32 546.47 459.97 546.47 464.47Z" id="c5DjYkqMZV"></path><path d="M520.2 536.85C520.2 541.35 518.8 545 517.08 545C515.36 545 513.96 541.35 513.96 536.85C513.96 532.35 515.36 528.7 517.08 521.84C518.8 528.7 520.2 532.35 520.2 536.85Z" id="a2Vgw5gVOg"></path><path d="M603.12 560.44C603.12 564.94 601.72 568.59 600 568.59C598.28 568.59 596.88 564.94 596.88 560.44C596.88 555.94 598.28 552.29 600 545.43C601.72 552.29 603.12 555.94 603.12 560.44Z" id="b3kdb6Cgqw"></path><path d="M540.23 593.37C540.23 597.87 538.83 601.52 537.11 601.52C535.39 601.52 533.99 597.87 533.99 593.37C533.99 588.87 535.39 585.22 537.11 578.36C538.83 585.22 540.23 588.87 540.23 593.37Z" id="b81nU7el0"></path><path d="M565.06 394.78C565.06 399.28 563.67 402.93 561.94 402.93C560.22 402.93 558.83 399.28 558.83 394.78C558.83 390.28 560.22 386.63 561.94 379.77C563.67 386.63 565.06 390.28 565.06 394.78Z" id="d1BfazYnjA"></path><path d="M492.36 552.48C492.36 556.98 490.96 560.63 489.24 560.63C487.52 560.63 486.12 556.98 486.12 552.48C486.12 547.98 487.52 544.33 489.24 537.47C490.96 544.33 492.36 547.98 492.36 552.48Z" id="b1Eene2NJk"></path><path d="M568.18 478.26C568.18 482.76 566.78 486.41 565.06 486.41C563.34 486.41 561.94 482.76 561.94 478.26C561.94 473.76 563.34 470.11 565.06 463.25C566.78 470.11 568.18 473.76 568.18 478.26Z" id="a29xghwTOx"></path><path d="M583.45 229.15C583.45 233.65 582.05 237.3 580.33 237.3C578.61 237.3 577.21 233.65 577.21 229.15C577.21 224.65 578.61 221 580.33 214.14C582.05 221 583.45 224.65 583.45 229.15Z" id="arlP36nCi"></path><path d="M571.3 349.18C571.3 353.68 569.9 357.33 568.18 357.33C566.46 357.33 565.06 353.68 565.06 349.18C565.06 344.68 566.46 341.03 568.18 334.17C569.9 341.03 571.3 344.68 571.3 349.18Z" id="b2UTCqYms"></path><path d="M542.54 542.8C542.54 547.3 541.15 550.95 539.43 550.95C537.7 550.95 536.31 547.3 536.31 542.8C536.31 538.3 537.7 534.65 539.43 527.79C541.15 534.65 542.54 538.3 542.54 542.8Z" id="cdyinV4A"></path><path d="M574.42 593.37C574.42 597.87 573.02 601.52 571.3 601.52C569.58 601.52 568.18 597.87 568.18 593.37C568.18 588.87 569.58 585.22 571.3 578.36C573.02 585.22 574.42 588.87 574.42 593.37Z" id="e17gZ9dEql"></path><path d="M612.47 498.89C612.47 503.39 611.08 507.04 609.35 507.04C607.63 507.04 606.24 503.39 606.24 498.89C606.24 494.39 607.63 490.74 609.35 483.88C611.08 490.74 612.47 494.39 612.47 498.89Z" id="b1X1DRGs5"></path><path d="M507.95 319.75C507.95 324.25 506.55 327.9 504.83 327.9C503.11 327.9 501.71 324.25 501.71 319.75C501.71 315.25 503.11 311.6 504.83 304.74C506.55 311.6 507.95 315.25 507.95 319.75Z" id="jsP6zf5UJ"></path><path d="M526.44 435.73C526.44 440.23 525.04 443.88 523.32 443.88C521.6 443.88 520.2 440.23 520.2 435.73C520.2 431.23 521.6 427.58 523.32 420.72C525.04 427.58 526.44 431.23 526.44 435.73Z" id="b5MfRCpuPV"></path><path d="M583.45 697.4C583.45 701.9 582.05 705.55 580.33 705.55C578.61 705.55 577.21 701.9 577.21 697.4C577.21 692.9 578.61 689.25 580.33 682.39C582.05 689.25 583.45 692.9 583.45 697.4Z" id="c2eIxncMSJ"></path><path d="M546.47 629.93C546.47 634.43 545.07 638.07 543.35 638.07C541.63 638.07 540.23 634.43 540.23 629.93C540.23 625.42 541.63 621.78 543.35 614.91C545.07 621.78 546.47 625.42 546.47 629.93Z" id="bUrn4iJ0v"></path><path d="M520.72 620.99C520.72 625.49 519.32 629.14 517.6 629.14C515.88 629.14 514.48 625.49 514.48 620.99C514.48 616.49 515.88 612.84 517.6 605.98C519.32 612.84 520.72 616.49 520.72 620.99Z" id="cp8PKIxn2"></path><path d="M489.12 510.47C489.12 514.97 487.72 518.62 486 518.62C484.28 518.62 482.88 514.97 482.88 510.47C482.88 505.97 484.28 502.32 486 495.46C487.72 502.32 489.12 505.97 489.12 510.47Z" id="acv6eDRdW"></path><path d="M513.96 269.54C513.96 274.04 512.57 277.69 510.85 277.69C509.12 277.69 507.73 274.04 507.73 269.54C507.73 265.04 509.12 261.39 510.85 254.53C512.57 261.39 513.96 265.04 513.96 269.54Z" id="bLnb7hzy"></path><path d="M571.3 269.54C571.3 274.04 569.9 277.69 568.18 277.69C566.46 277.69 565.06 274.04 565.06 269.54C565.06 265.04 566.46 261.39 568.18 254.53C569.9 261.39 571.3 265.04 571.3 269.54Z" id="j4mJMbsnhl"></path><path d="M534.43 380.99C535.05 385.45 534.17 389.25 532.46 389.49C530.76 389.72 528.87 386.3 528.26 381.84C527.64 377.38 528.53 373.58 529.29 366.55C531.94 373.11 533.82 376.53 534.43 380.99Z" id="c2g0wS5jGB"></path><path d="M552.7 203.45C552.7 207.95 551.31 211.6 549.58 211.6C547.86 211.6 546.47 207.95 546.47 203.45C546.47 198.95 547.86 195.3 549.58 188.44C551.31 195.3 552.7 198.95 552.7 203.45Z" id="e1KuYJyuzf"></path><path d="M549.58 279.51C549.58 284.01 548.19 287.66 546.47 287.66C544.74 287.66 543.35 284.01 543.35 279.51C543.35 275.01 544.74 271.36 546.47 264.5C548.19 271.36 549.58 275.01 549.58 279.51Z" id="e5cPD2Rri7"></path><path d="M590.65 286.33C590.65 290.83 589.25 294.48 587.53 294.48C585.81 294.48 584.41 290.83 584.41 286.33C584.41 281.83 585.81 278.18 587.53 271.32C589.25 278.18 590.65 281.83 590.65 286.33Z" id="eBy5GCNP0"></path><path d="M498.59 608.78C498.59 613.28 497.2 616.93 495.47 616.93C493.75 616.93 492.36 613.28 492.36 608.78C492.36 604.28 493.75 600.63 495.47 593.76C497.2 600.63 498.59 604.28 498.59 608.78Z" id="d28mKK5Ugu"></path><path d="M523.32 572.02C523.32 576.52 521.92 580.17 520.2 580.17C518.48 580.17 517.08 576.52 517.08 572.02C517.08 567.52 518.48 563.87 520.2 557.01C521.92 563.87 523.32 567.52 523.32 572.02Z" id="b88Ype7ka"></path><path d="M561.94 433.4C561.94 437.9 560.55 441.55 558.83 441.55C557.1 441.55 555.71 437.9 555.71 433.4C555.71 428.9 557.1 425.25 558.83 418.39C560.55 425.25 561.94 428.9 561.94 433.4Z" id="aupIqvJtX"></path><path d="M492.23 403.43C492.23 407.93 490.84 411.58 489.12 411.58C487.39 411.58 486 407.93 486 403.43C486 398.93 487.39 395.28 489.12 388.42C490.84 395.28 492.23 398.93 492.23 403.43Z" id="a5oL5zqZT"></path><path d="M596.88 470.9C596.88 475.4 595.49 479.05 593.76 479.05C592.04 479.05 590.65 475.4 590.65 470.9C590.65 466.4 592.04 462.75 593.76 455.89C595.49 462.75 596.88 466.4 596.88 470.9Z" id="a1Q7do7kM"></path><path d="M537.61 510.47C537.61 514.97 536.22 518.62 534.5 518.62C532.78 518.62 531.38 514.97 531.38 510.47C531.38 505.97 532.78 502.32 534.5 495.46C536.22 502.32 537.61 505.97 537.61 510.47Z" id="a19SsCxMj8"></path><path d="M583.45 406.36C583.45 410.86 582.05 414.51 580.33 414.51C578.61 414.51 577.21 410.86 577.21 406.36C577.21 401.86 578.61 398.21 580.33 391.35C582.05 398.21 583.45 401.86 583.45 406.36Z" id="a2FWJwQemt"></path><path d="M600 606.76C600 611.27 598.6 614.91 596.88 614.91C595.16 614.91 593.76 611.27 593.76 606.76C593.76 602.26 595.16 598.62 596.88 591.75C598.6 598.62 600 602.26 600 606.76Z" id="j5goKxfnRl"></path><path d="M558.13 700.59C558.13 705.09 556.74 708.74 555.01 708.74C553.29 708.74 551.9 705.09 551.9 700.59C551.9 696.09 553.29 692.44 555.01 685.57C556.74 692.44 558.13 696.09 558.13 700.59Z" id="bFUhd6M7L"></path><path d="M565.06 564.06C565.06 568.56 563.67 572.21 561.94 572.21C560.22 572.21 558.83 568.56 558.83 564.06C558.83 559.56 560.22 555.91 561.94 549.05C563.67 555.91 565.06 559.56 565.06 564.06Z" id="hnrPCa479"></path><path d="M804.42 52.85C820.66 52.85 833.81 66.98 833.81 84.41C833.82 132.68 775.02 156.63 775.02 157.96C775.02 157.96 775.02 157.96 775.02 157.96C775.02 156.63 716.23 132.68 716.23 84.41C716.23 66.98 729.39 52.84 745.63 52.84C761.86 52.84 775.02 65.22 775.02 82.66C775.02 65.23 788.18 52.85 804.42 52.85Z" id="d2OHAGp7gp"></path><path d="M1065 286.24C1081.24 286.24 1094.4 300.37 1094.4 317.8C1094.4 366.07 1035.6 390.02 1035.6 391.35C1035.6 391.35 1035.6 391.35 1035.6 391.35C1035.6 390.02 976.81 366.07 976.81 317.8C976.81 300.37 989.97 286.24 1006.21 286.24C1022.44 286.24 1035.6 298.62 1035.6 316.05C1035.6 298.62 1048.76 286.24 1065 286.24Z" id="a3ajHEp8H8"></path><path d="M807.13 463.25C823.37 463.25 836.53 477.38 836.53 494.81C836.53 543.08 777.74 567.03 777.74 568.36C777.74 568.36 777.74 568.36 777.74 568.36C777.74 567.03 718.94 543.08 718.94 494.81C718.94 477.38 732.11 463.25 748.34 463.25C764.58 463.25 777.74 475.63 777.74 493.06C777.74 475.63 790.9 463.25 807.13 463.25Z" id="bs0Lt8MjW"></path><path d="M1126.51 629.14C1142.75 629.14 1155.91 643.27 1155.91 660.7C1155.91 708.97 1097.11 732.92 1097.11 734.25C1097.11 734.25 1097.11 734.25 1097.11 734.25C1097.11 732.92 1038.32 708.97 1038.32 660.7C1038.32 643.27 1051.48 629.14 1067.72 629.14C1083.95 629.14 1097.11 641.52 1097.11 658.95C1097.11 641.52 1110.27 629.14 1126.51 629.14Z" id="egbuXoN5K"></path><path d="M139.96 560.64C156.2 560.64 169.36 574.77 169.36 592.2C169.36 640.46 110.57 664.42 110.57 665.75C110.57 665.75 110.57 665.75 110.57 665.75C110.57 664.42 51.77 640.46 51.77 592.19C51.77 574.76 64.94 560.63 81.17 560.63C97.41 560.63 110.57 573.01 110.57 590.45C110.57 573.02 123.73 560.64 139.96 560.64Z" id="d28bpdF13k"></path><path d="M150.23 25.06C133.99 25.06 120.83 39.19 120.83 56.62C120.83 104.89 179.62 128.84 179.62 130.17C179.62 130.17 179.62 130.17 179.62 130.17C179.62 128.84 238.42 104.89 238.42 56.62C238.42 39.19 225.26 25.06 209.02 25.06C192.79 25.06 179.62 37.44 179.63 54.87C179.63 37.44 166.47 25.06 150.23 25.06Z" id="fmtKHXl9V"></path><path d="M1089.47 77.62C1105.71 77.62 1118.87 91.75 1118.87 109.18C1118.88 157.45 1060.08 181.4 1060.08 182.73C1060.08 182.73 1060.08 182.73 1060.08 182.73C1060.08 181.4 1001.29 157.45 1001.29 109.18C1001.29 91.75 1014.45 77.61 1030.68 77.61C1046.92 77.61 1060.08 89.99 1060.08 107.43C1060.08 90 1073.24 77.62 1089.47 77.62Z" id="b3At6doNRw"></path><path d="M841.87 623.62C858.11 623.62 871.27 637.75 871.27 655.18C871.27 703.45 812.48 727.41 812.48 728.74C812.48 728.74 812.48 728.74 812.48 728.74C812.48 727.41 753.69 703.45 753.69 655.18C753.69 637.75 766.85 623.62 783.08 623.62C799.32 623.62 812.48 636 812.48 653.43C812.48 636 825.64 623.62 841.87 623.62Z" id="eF67N8iqE"></path><path d="M75.02 381.96C58.78 381.96 45.63 396.09 45.63 413.52C45.62 461.79 104.42 485.74 104.42 487.07C104.42 487.07 104.42 487.07 104.42 487.07C104.42 485.74 163.21 461.79 163.21 413.51C163.21 396.08 150.05 381.95 133.81 381.95C117.58 381.95 104.42 394.33 104.42 411.77C104.42 394.34 91.26 381.96 75.02 381.96Z" id="a1rPbAXvHw"></path></defs><g><g><g><use xlink:href="#aaqb2LxHG7" opacity="1" fill="#db561b" fill-opacity="1"></use></g><g><use xlink:href="#a4xJG90thU" opacity="1" fill="#f2d27c" fill-opacity="1"></use></g><g><use xlink:href="#brFwNbVFh" opacity="1" fill="#f2d27c" fill-opacity="1"></use></g><g><use xlink:href="#ca4eTQ3GT" opacity="1" fill="#f2d27c" fill-opacity="1"></use></g><g><use xlink:href="#bfckxmMee" opacity="1" fill="#f2d27c" fill-opacity="1"></use></g><g><use xlink:href="#c1KUvs33LE" opacity="1" fill="#f0b71c" fill-opacity="1"></use></g><g><use xlink:href="#dqmOkY2oj" opacity="1" fill="#f0b71c" fill-opacity="1"></use></g><g><use xlink:href="#b6C24wrQLu" opacity="1" fill="#f80000" fill-opacity="1"></use></g><g><use xlink:href="#bOYp4iRCt" opacity="1" fill="#f8f200" fill-opacity="1"></use></g><g><use xlink:href="#a14eINEHoW" opacity="1" fill="#1df3ad" fill-opacity="1"></use></g><g><use xlink:href="#b1Telr6XV1" opacity="1" fill="#1df3ad" fill-opacity="1"></use></g><g><use xlink:href="#b12awm0sQg" opacity="1" fill="#000000" fill-opacity="1"></use></g><g><use xlink:href="#h2pdgJ37ci" opacity="1" fill="#000000" fill-opacity="1"></use></g><g><use xlink:href="#b510nssWVT" opacity="1" fill="#000000" fill-opacity="1"></use></g><g><use xlink:href="#a229MYwWOx" opacity="1" fill="#000000" fill-opacity="1"></use></g><g><use xlink:href="#b3E1L8yKq4" opacity="1" fill="#000000" fill-opacity="1"></use></g><g><use xlink:href="#a1fu0C82gU" opacity="1" fill="#000000" fill-opacity="1"></use></g><g><use xlink:href="#b5eRj1QzG" opacity="1" fill="#000000" fill-opacity="1"></use><g><use xlink:href="#b5eRj1QzG" opacity="1" fill-opacity="0" stroke="#000000" stroke-width="1" stroke-opacity="1"></use></g></g><g><use xlink:href="#aQgDIVFgI" opacity="1" fill="#000000" fill-opacity="1"></use></g><g><use xlink:href="#ckj3wmhq0" opacity="1" fill="#000000" fill-opacity="1"></use></g><g><use xlink:href="#ae5DW7mPB" opacity="1" fill="#000000" fill-opacity="1"></use></g><g><use xlink:href="#bayy4W16p" opacity="1" fill="#000000" fill-opacity="1"></use></g><g><use xlink:href="#bZO4CKMT" opacity="1" fill="#e07116" fill-opacity="1"></use></g><g><use xlink:href="#bb8Ipg28" opacity="1" fill="#e07116" fill-opacity="1"></use></g><g><use xlink:href="#bg02K1rQS" opacity="1" fill="#e07116" fill-opacity="1"></use></g><g><use xlink:href="#c1gujC5S4k" opacity="1" fill="#e07116" fill-opacity="1"></use></g><g><use xlink:href="#a3mPAxudXP" opacity="1" fill="#e07116" fill-opacity="1"></use></g><g><use xlink:href="#b5H3bMKxOw" opacity="1" fill="#e07116" fill-opacity="1"></use></g><g><use xlink:href="#a3nW7ubPUc" opacity="1" fill="#e07116" fill-opacity="1"></use></g><g><use xlink:href="#alN0ilFgr" opacity="1" fill="#e07116" fill-opacity="1"></use></g><g><use xlink:href="#b2MfU3bEF8" opacity="1" fill="#e07116" fill-opacity="1"></use></g><g><use xlink:href="#fEXIdMqEU" opacity="1" fill="#e07116" fill-opacity="1"></use></g><g><use xlink:href="#c4nXx7dCu" opacity="1" fill="#e07116" fill-opacity="1"></use></g><g><use xlink:href="#brrLGlul" opacity="1" fill="#e07116" fill-opacity="1"></use></g><g><use xlink:href="#aZNtT4QAq" opacity="1" fill="#e07116" fill-opacity="1"></use></g><g><use xlink:href="#eKyItYPui" opacity="1" fill="#e07116" fill-opacity="1"></use></g><g><use xlink:href="#b1aoMLBoMk" opacity="1" fill="#e07116" fill-opacity="1"></use></g><g><use xlink:href="#b22xKsXqCt" opacity="1" fill="#e07116" fill-opacity="1"></use></g><g><use xlink:href="#cgt9IhR37" opacity="1" fill="#e07116" fill-opacity="1"></use></g><g><use xlink:href="#b2UmosNajj" opacity="1" fill="#e07116" fill-opacity="1"></use></g><g><use xlink:href="#ac0TsE31" opacity="1" fill="#e07116" fill-opacity="1"></use></g><g><use xlink:href="#anpbnLMxs" opacity="1" fill="#e07116" fill-opacity="1"></use></g><g><use xlink:href="#ec2htkCXH" opacity="1" fill="#e07116" fill-opacity="1"></use></g><g><use xlink:href="#j1DUB4Ut9M" opacity="1" fill="#e07116" fill-opacity="1"></use></g><g><use xlink:href="#cKcHPGaaM" opacity="1" fill="#e07116" fill-opacity="1"></use></g><g><use xlink:href="#a23xerjYnx" opacity="1" fill="#e07116" fill-opacity="1"></use></g><g><use xlink:href="#a4WpjyEEO" opacity="1" fill="#e07116" fill-opacity="1"></use></g><g><use xlink:href="#a7z6jpcQ9" opacity="1" fill="#e07116" fill-opacity="1"></use></g><g><use xlink:href="#f3bsysq8J" opacity="1" fill="#e07116" fill-opacity="1"></use></g><g><use xlink:href="#aN8vRsxyq" opacity="1" fill="#e07116" fill-opacity="1"></use></g><g><use xlink:href="#a18gVFrzrJ" opacity="1" fill="#e07116" fill-opacity="1"></use></g><g><use xlink:href="#cr0kHNEEU" opacity="1" fill="#e07116" fill-opacity="1"></use></g><g><use xlink:href="#c3n0m3QHTP" opacity="1" fill="#e07116" fill-opacity="1"></use></g><g><use xlink:href="#bJ6a3abCE" opacity="1" fill="#e07116" fill-opacity="1"></use></g><g><use xlink:href="#bCrhJHlxQ" opacity="1" fill="#e07116" fill-opacity="1"></use></g><g><use xlink:href="#a6x5x283ri" opacity="1" fill="#e07116" fill-opacity="1"></use></g><g><use xlink:href="#b3g3I8gCEa" opacity="1" fill="#e07116" fill-opacity="1"></use></g><g><use xlink:href="#a1yTumDCBt" opacity="1" fill="#e07116" fill-opacity="1"></use></g><g><use xlink:href="#a2RKTkFW0T" opacity="1" fill="#e07116" fill-opacity="1"></use></g><g><use xlink:href="#a1DzTKCIay" opacity="1" fill="#e07116" fill-opacity="1"></use></g><g><use xlink:href="#f53XGm8qRS" opacity="1" fill="#e07116" fill-opacity="1"></use></g><g><use xlink:href="#aPBBJEIg1" opacity="1" fill="#e07116" fill-opacity="1"></use></g><g><use xlink:href="#bTELbWHv" opacity="1" fill="#e07116" fill-opacity="1"></use></g><g><use xlink:href="#b29Vx2kiPm" opacity="1" fill="#e07116" fill-opacity="1"></use></g><g><use xlink:href="#c1avDwCQ8" opacity="1" fill="#e07116" fill-opacity="1"></use></g><g><use xlink:href="#b20tJGwuiY" opacity="1" fill="#e07116" fill-opacity="1"></use></g><g><use xlink:href="#eDYFbmj5u" opacity="1" fill="#e07116" fill-opacity="1"></use></g><g><use xlink:href="#f6N1l3oBtK" opacity="1" fill="#e07116" fill-opacity="1"></use></g><g><use xlink:href="#b8KhwO2Ic" opacity="1" fill="#e07116" fill-opacity="1"></use></g><g><use xlink:href="#ablb34Egg" opacity="1" fill="#e07116" fill-opacity="1"></use></g><g><use xlink:href="#b1xPfiNnhr" opacity="1" fill="#e07116" fill-opacity="1"></use></g><g><use xlink:href="#bdf9EPu6S" opacity="1" fill="#e07116" fill-opacity="1"></use></g><g><use xlink:href="#buZR2pVvi" opacity="1" fill="#e07116" fill-opacity="1"></use></g><g><use xlink:href="#a1hUYb55s2" opacity="1" fill="#e07116" fill-opacity="1"></use></g><g><use xlink:href="#bn816fjR5" opacity="1" fill="#e07116" fill-opacity="1"></use></g><g><use xlink:href="#b1hjRwRAA9" opacity="1" fill="#e07116" fill-opacity="1"></use></g><g><use xlink:href="#c5DjYkqMZV" opacity="1" fill="#e07116" fill-opacity="1"></use></g><g><use xlink:href="#a2Vgw5gVOg" opacity="1" fill="#e07116" fill-opacity="1"></use></g><g><use xlink:href="#b3kdb6Cgqw" opacity="1" fill="#e07116" fill-opacity="1"></use></g><g><use xlink:href="#b81nU7el0" opacity="1" fill="#e07116" fill-opacity="1"></use></g><g><use xlink:href="#d1BfazYnjA" opacity="1" fill="#e07116" fill-opacity="1"></use></g><g><use xlink:href="#b1Eene2NJk" opacity="1" fill="#e07116" fill-opacity="1"></use></g><g><use xlink:href="#a29xghwTOx" opacity="1" fill="#e07116" fill-opacity="1"></use></g><g><use xlink:href="#arlP36nCi" opacity="1" fill="#e07116" fill-opacity="1"></use></g><g><use xlink:href="#b2UTCqYms" opacity="1" fill="#e07116" fill-opacity="1"></use></g><g><use xlink:href="#cdyinV4A" opacity="1" fill="#e07116" fill-opacity="1"></use></g><g><use xlink:href="#e17gZ9dEql" opacity="1" fill="#e07116" fill-opacity="1"></use></g><g><use xlink:href="#b1X1DRGs5" opacity="1" fill="#e07116" fill-opacity="1"></use></g><g><use xlink:href="#jsP6zf5UJ" opacity="1" fill="#e07116" fill-opacity="1"></use></g><g><use xlink:href="#b5MfRCpuPV" opacity="1" fill="#e07116" fill-opacity="1"></use></g><g><use xlink:href="#c2eIxncMSJ" opacity="1" fill="#e07116" fill-opacity="1"></use></g><g><use xlink:href="#bUrn4iJ0v" opacity="1" fill="#e07116" fill-opacity="1"></use></g><g><use xlink:href="#cp8PKIxn2" opacity="1" fill="#e07116" fill-opacity="1"></use></g><g><use xlink:href="#acv6eDRdW" opacity="1" fill="#e07116" fill-opacity="1"></use></g><g><use xlink:href="#bLnb7hzy" opacity="1" fill="#e07116" fill-opacity="1"></use></g><g><use xlink:href="#j4mJMbsnhl" opacity="1" fill="#e07116" fill-opacity="1"></use></g><g><use xlink:href="#c2g0wS5jGB" opacity="1" fill="#e07116" fill-opacity="1"></use></g><g><use xlink:href="#e1KuYJyuzf" opacity="1" fill="#e07116" fill-opacity="1"></use></g><g><use xlink:href="#e5cPD2Rri7" opacity="1" fill="#e07116" fill-opacity="1"></use></g><g><use xlink:href="#eBy5GCNP0" opacity="1" fill="#e07116" fill-opacity="1"></use></g><g><use xlink:href="#d28mKK5Ugu" opacity="1" fill="#e07116" fill-opacity="1"></use></g><g><use xlink:href="#b88Ype7ka" opacity="1" fill="#e07116" fill-opacity="1"></use></g><g><use xlink:href="#aupIqvJtX" opacity="1" fill="#e07116" fill-opacity="1"></use></g><g><use xlink:href="#a5oL5zqZT" opacity="1" fill="#e07116" fill-opacity="1"></use></g><g><use xlink:href="#a1Q7do7kM" opacity="1" fill="#e07116" fill-opacity="1"></use></g><g><use xlink:href="#a19SsCxMj8" opacity="1" fill="#e07116" fill-opacity="1"></use></g><g><use xlink:href="#a2FWJwQemt" opacity="1" fill="#e07116" fill-opacity="1"></use></g><g><use xlink:href="#j5goKxfnRl" opacity="1" fill="#e07116" fill-opacity="1"></use></g><g><use xlink:href="#bFUhd6M7L" opacity="1" fill="#e07116" fill-opacity="1"></use></g><g><use xlink:href="#hnrPCa479" opacity="1" fill="#e07116" fill-opacity="1"></use></g><g><use xlink:href="#d2OHAGp7gp" opacity="1" fill="#f31da0" fill-opacity="1"></use></g><g><use xlink:href="#a3ajHEp8H8" opacity="1" fill="#f31da0" fill-opacity="1"></use></g><g><use xlink:href="#bs0Lt8MjW" opacity="1" fill="#f31da0" fill-opacity="1"></use></g><g><use xlink:href="#egbuXoN5K" opacity="1" fill="#f31da0" fill-opacity="1"></use></g><g><use xlink:href="#d28bpdF13k" opacity="1" fill="#f31da0" fill-opacity="1"></use></g><g><use xlink:href="#fmtKHXl9V" opacity="1" fill="#f31da0" fill-opacity="1"></use></g><g><use xlink:href="#b3At6doNRw" opacity="1" fill="#f31da0" fill-opacity="1"></use></g><g><use xlink:href="#eF67N8iqE" opacity="1" fill="#f31da0" fill-opacity="1"></use></g><g><use xlink:href="#a1rPbAXvHw" opacity="1" fill="#f31da0" fill-opacity="1"></use></g></g></g></svg>